<svg width="488" height="297" viewBox="0 0 488 297" fill="none" xmlns="http://www.w3.org/2000/svg">
<g clip-path="url(#clip0_759_2075)">
<path d="M205.744 141.485H159.972C158.447 141.485 155.395 139.959 153.869 138.434C152.344 136.908 152.344 135.382 152.344 132.331L164.549 71.3024C166.075 66.7253 169.127 63.6739 173.704 65.1996C178.281 66.7253 181.332 69.7767 179.806 74.3539L170.652 126.228H207.269C211.846 126.228 214.898 129.279 214.898 133.856C214.898 138.434 210.321 141.485 205.744 141.485Z" fill="#32A517"/>
<path d="M190.488 156.742C185.911 156.742 182.859 153.691 182.859 149.114V103.342C182.859 98.7652 185.911 95.7138 190.488 95.7138C195.065 95.7138 198.116 98.7652 198.116 103.342V149.114C198.116 153.691 195.065 156.742 190.488 156.742ZM358.316 141.485H312.545C311.019 141.485 307.967 139.959 306.442 138.434C304.916 136.908 304.916 135.382 304.916 132.331L317.122 71.3024C318.647 66.7253 321.699 63.6739 326.276 65.1996C330.853 66.7253 333.904 69.7767 332.379 74.3539L323.225 126.228H359.842C364.419 126.228 367.47 129.279 367.47 133.856C367.47 138.434 362.893 141.485 358.316 141.485Z" fill="#32A517"/>
<path d="M343.058 156.742C338.481 156.742 335.43 153.691 335.43 149.114V103.342C335.43 98.7653 338.481 95.7139 343.058 95.7139C347.635 95.7139 350.687 98.7653 350.687 103.342V149.114C350.687 153.691 347.635 156.742 343.058 156.742Z" fill="#32A517"/>
<path d="M388.826 233.027H129.456C117.25 233.027 106.57 222.347 106.57 210.141V27.0565C106.57 14.8509 117.25 4.1709 129.456 4.1709H388.826C401.032 4.1709 411.712 14.8509 411.712 27.0565V210.141C411.712 222.347 401.032 233.027 388.826 233.027ZM129.456 19.428C124.879 19.428 121.827 22.4794 121.827 27.0565V210.141C121.827 214.719 124.879 217.77 129.456 217.77H388.826C393.403 217.77 396.455 214.719 396.455 210.141V27.0565C396.455 22.4794 393.403 19.428 388.826 19.428H129.456ZM358.312 294.055H159.97C155.393 294.055 152.342 291.004 152.342 286.427C152.342 281.85 155.393 278.798 159.97 278.798H358.312C362.889 278.798 365.941 281.85 365.941 286.427C365.941 291.004 362.889 294.055 358.312 294.055Z" fill="#295047"/>
<path d="M404.086 187.256H114.202C109.624 187.256 106.573 184.205 106.573 179.628C106.573 175.05 109.624 171.999 114.202 171.999H404.086C408.663 171.999 411.715 175.05 411.715 179.628C411.715 184.205 408.663 187.256 404.086 187.256ZM297.286 294.056H221.001C216.424 294.056 213.373 291.004 213.373 286.427V225.399C213.373 220.822 216.424 217.77 221.001 217.77H297.286C301.864 217.77 304.915 220.822 304.915 225.399V286.427C304.915 291.004 301.864 294.056 297.286 294.056ZM228.63 278.799H289.658V233.027H228.63V278.799ZM98.9445 248.284H83.6874C79.1103 248.284 76.0588 245.233 76.0588 240.656C76.0588 236.079 79.1103 233.027 83.6874 233.027H98.9445C103.522 233.027 106.573 236.079 106.573 240.656C106.573 245.233 103.522 248.284 98.9445 248.284ZM22.6591 248.284H7.40198C2.82485 248.284 -0.226562 245.233 -0.226562 240.656C-0.226562 236.079 2.82485 233.027 7.40198 233.027H22.6591C27.2362 233.027 30.2876 236.079 30.2876 240.656C30.2876 245.233 27.2362 248.284 22.6591 248.284ZM53.1732 217.77C48.5961 217.77 45.5447 214.719 45.5447 210.142V194.885C45.5447 190.308 48.5961 187.256 53.1732 187.256C57.7503 187.256 60.8018 190.308 60.8018 194.885V210.142C60.8018 214.719 57.7503 217.77 53.1732 217.77ZM53.1732 294.056C48.5961 294.056 45.5447 291.004 45.5447 286.427V271.17C45.5447 266.593 48.5961 263.542 53.1732 263.542C57.7503 263.542 60.8018 266.593 60.8018 271.17V286.427C60.8018 291.004 57.7503 294.056 53.1732 294.056ZM31.8133 226.925C30.2876 226.925 27.2362 226.925 25.7105 225.399L15.0305 213.193C11.9791 210.142 11.9791 205.565 15.0305 202.513C18.0819 199.462 22.6591 199.462 25.7105 202.513L36.3904 213.193C39.4418 216.245 39.4418 220.822 36.3904 223.873C34.8647 225.399 33.339 226.925 31.8133 226.925ZM85.2131 280.324C83.6874 280.324 80.636 280.324 79.1103 278.799L68.4303 268.119C65.3789 265.067 65.3789 260.49 68.4303 257.439C71.4817 254.387 76.0588 254.387 79.1103 257.439L91.3159 268.119C94.3673 271.17 94.3673 275.747 91.3159 278.799C89.7902 280.324 86.7388 280.324 85.2131 280.324ZM74.5331 226.925C73.0074 226.925 69.956 226.925 68.4303 225.399C65.3789 222.347 65.3789 217.77 68.4303 214.719L79.1103 204.039C82.1617 200.987 86.7388 200.987 89.7902 204.039C92.8416 207.09 92.8416 211.667 89.7902 214.719L79.1103 225.399C79.1103 225.399 76.0588 226.925 74.5331 226.925ZM21.1333 280.324C19.6076 280.324 16.5562 280.324 15.0305 278.799C11.9791 275.747 11.9791 271.17 15.0305 268.119L25.7105 257.439C28.7619 254.387 33.339 254.387 36.3904 257.439C39.4418 260.49 39.4418 265.067 36.3904 268.119L25.7105 278.799C24.1848 280.324 22.6591 280.324 21.1333 280.324Z" fill="#295047"/>
<path d="M53.1754 248.284C57.3885 248.284 60.804 244.869 60.804 240.656C60.804 236.443 57.3885 233.027 53.1754 233.027C48.9623 233.027 45.5469 236.443 45.5469 240.656C45.5469 244.869 48.9623 248.284 53.1754 248.284Z" fill="#295047"/>
<path d="M53.174 278.798C31.814 278.798 15.0312 262.015 15.0312 240.655C15.0312 229.975 19.6084 220.821 25.7112 213.193C33.3397 205.564 42.494 202.513 53.174 202.513C74.5339 202.513 91.3167 219.295 91.3167 240.655C91.3167 262.015 74.5339 278.798 53.174 278.798ZM53.174 217.77C47.0711 217.77 40.9683 220.821 36.3912 223.873C33.3397 228.45 30.2883 234.553 30.2883 240.655C30.2883 252.861 40.9683 263.541 53.174 263.541C65.3796 263.541 76.0596 252.861 76.0596 240.655C76.0596 228.45 65.3796 217.77 53.174 217.77ZM83.6881 156.741H68.431C63.8539 156.741 60.8025 153.69 60.8025 149.113C60.8025 144.536 63.8539 141.484 68.431 141.484H83.6881C88.2652 141.484 91.3167 144.536 91.3167 149.113C91.3167 153.69 88.2652 156.741 83.6881 156.741ZM92.8424 135.382C91.3167 135.382 88.2652 135.382 86.7395 133.856L76.0596 121.65C73.0082 118.599 73.0082 114.022 76.0596 110.97C79.111 107.919 83.6881 107.919 86.7395 110.97L97.4195 121.65C100.471 124.702 100.471 129.279 97.4195 132.33C95.8938 133.856 94.3681 135.382 92.8424 135.382ZM82.1624 188.781C80.6367 188.781 77.5853 188.781 76.0596 187.256C73.0082 184.204 73.0082 179.627 76.0596 176.576L86.7395 165.896C89.7909 162.844 94.3681 162.844 97.4195 165.896C100.471 168.947 100.471 173.524 97.4195 176.576L86.7395 187.256C85.2138 188.781 83.6881 188.781 82.1624 188.781Z" fill="#32A517"/>
<path d="M114.205 187.256C92.8453 187.256 76.0625 170.474 76.0625 149.114C76.0625 138.434 80.6396 129.279 86.7425 121.651C94.371 114.022 103.525 110.971 114.205 110.971V126.228C108.102 126.228 102 129.279 97.4224 132.331C94.371 136.908 91.3196 143.011 91.3196 149.114C91.3196 161.319 102 171.999 114.205 171.999V187.256ZM426.975 187.256H404.09C399.513 187.256 396.461 184.205 396.461 179.628V42.3141C396.461 37.737 399.513 34.6855 404.09 34.6855H426.975C431.552 34.6855 434.604 37.737 434.604 42.3141V54.5198L443.758 45.3655C446.81 42.3141 451.387 42.3141 454.438 45.3655L475.798 66.7254C478.849 69.7768 478.849 74.354 475.798 77.4054L468.169 88.0853H480.375C484.952 88.0853 488.004 91.1367 488.004 95.7139V126.228C488.004 130.805 484.952 133.857 480.375 133.857H468.169L477.324 143.011C480.375 146.062 480.375 150.639 477.324 153.691L455.964 175.051C452.912 178.102 448.335 178.102 445.284 175.051L436.13 165.896V179.628C434.604 184.205 431.552 187.256 426.975 187.256ZM411.718 171.999H419.347V161.319C419.347 158.268 420.872 155.216 423.924 153.691C426.975 152.165 430.027 152.165 433.078 150.639C436.13 149.114 439.181 149.114 442.232 152.165L449.861 159.794L460.541 149.114L452.912 141.485C449.861 138.434 449.861 135.382 451.387 132.331C452.912 129.279 454.438 126.228 454.438 123.177C455.964 120.125 459.015 117.074 462.067 117.074H472.747V101.817H462.067C459.015 101.817 455.964 100.291 454.438 95.7139C452.912 92.6625 452.912 89.611 451.387 86.5596C449.861 83.5082 449.861 80.4568 452.912 77.4054L460.541 69.7768L449.861 59.0969L442.232 69.7768C439.181 72.8283 436.13 72.8282 433.078 71.3025C430.027 69.7768 426.975 68.2511 423.924 68.2511C420.872 66.7254 419.347 63.674 419.347 60.6226V49.9426H411.718V171.999Z" fill="#295047"/>
<path d="M411.718 141.485C408.666 141.485 405.615 141.485 401.038 139.959C397.986 138.433 396.461 135.382 396.461 132.33V89.6106C396.461 86.5591 397.986 83.5077 401.038 81.982C422.398 74.3535 442.232 91.1363 442.232 110.97C442.232 127.753 428.501 141.485 411.718 141.485ZM411.718 95.7134V126.228C420.872 126.228 426.975 120.125 426.975 110.97C426.975 101.816 420.872 95.7134 411.718 95.7134ZM266.776 156.742H251.518C239.313 156.742 228.633 146.062 228.633 133.856V88.0848C228.633 75.8792 239.313 65.1992 251.518 65.1992H266.776C278.981 65.1992 289.661 75.8792 289.661 88.0848V133.856C289.661 146.062 278.981 156.742 266.776 156.742ZM251.518 80.4563C246.941 80.4563 243.89 83.5077 243.89 88.0848V133.856C243.89 138.433 246.941 141.485 251.518 141.485H266.776C271.353 141.485 274.404 138.433 274.404 133.856V88.0848C274.404 83.5077 271.353 80.4563 266.776 80.4563H251.518Z" fill="#32A517"/>
</g>
<defs>
<clipPath id="clip0_759_2075">
<rect width="488" height="297" fill="white"/>
</clipPath>
</defs>
</svg>
