<svg width="12" height="10" viewBox="0 0 12 10" fill="none" xmlns="http://www.w3.org/2000/svg">
<path fill-rule="evenodd" clip-rule="evenodd" d="M11.7693 0.24475C11.8424 0.322136 11.9005 0.414068 11.94 0.51528C11.9796 0.616491 12 0.724995 12 0.834574C12 0.944154 11.9796 1.05266 11.94 1.15387C11.9005 1.25508 11.8424 1.34701 11.7693 1.4244L5.48762 9.75525C5.41468 9.83283 5.32803 9.89439 5.23264 9.93638C5.13724 9.97838 5.03497 10 4.93169 10C4.82841 10 4.72614 9.97838 4.63074 9.93638C4.53535 9.89439 4.4487 9.83283 4.37576 9.75525L0.220418 5.3449C0.0773855 5.18778 -0.00175936 4.97734 2.96831e-05 4.7589C0.00181872 4.54047 0.0843984 4.33152 0.229983 4.17706C0.375568 4.0226 0.572509 3.93499 0.778389 3.93309C0.984269 3.93119 1.18261 4.01516 1.33071 4.16691L4.93169 7.98744L10.6575 0.24475C10.7304 0.167167 10.817 0.105614 10.9124 0.0636158C11.0078 0.0216175 11.1101 0 11.2134 0C11.3167 0 11.4189 0.0216175 11.5143 0.0636158C11.6097 0.105614 11.6964 0.167167 11.7693 0.24475Z" fill="white"/>
</svg>