<svg width="363" height="363" viewBox="0 0 363 363" fill="none" xmlns="http://www.w3.org/2000/svg">
<path fill-rule="evenodd" clip-rule="evenodd" d="M277.922 68.0625H266.578C263.447 68.0625 260.906 70.6035 260.906 73.7344C260.906 76.8652 263.447 79.4062 266.578 79.4062H277.922C281.053 79.4062 283.594 76.8652 283.594 73.7344C283.594 70.6035 281.053 68.0625 277.922 68.0625ZM132.858 90.75H62.3906C59.2598 90.75 56.7188 93.291 56.7188 96.4219C56.7188 99.5527 59.2598 102.094 62.3906 102.094H132.858C135.989 102.094 138.53 99.5527 138.53 96.4219C138.53 93.291 135.989 90.75 132.858 90.75ZM300.609 90.75H232.547C229.416 90.75 226.875 93.291 226.875 96.4219C226.875 99.5527 229.416 102.094 232.547 102.094H300.609C303.74 102.094 306.281 99.5527 306.281 96.4219C306.281 93.291 303.74 90.75 300.609 90.75Z" fill="#295047"/>
<path fill-rule="evenodd" clip-rule="evenodd" d="M62.3906 79.4062H39.7031C30.3105 79.4062 22.6875 87.0292 22.6875 96.4219V277.922C22.6875 287.314 30.3105 294.938 39.7031 294.938H323.297C332.69 294.938 340.312 287.314 340.312 277.922V96.4219C340.312 87.0292 332.69 79.4062 323.297 79.4062H300.609C297.478 79.4062 294.938 81.9473 294.938 85.0781C294.938 88.209 297.478 90.75 300.609 90.75H323.297C326.428 90.75 328.969 93.291 328.969 96.4219V277.922C328.969 281.053 326.428 283.594 323.297 283.594H39.7031C36.5723 283.594 34.0312 281.053 34.0312 277.922V96.4219C34.0312 93.291 36.5723 90.75 39.7031 90.75H62.3906C65.5215 90.75 68.0625 88.209 68.0625 85.0781C68.0625 81.9473 65.5215 79.4062 62.3906 79.4062Z" fill="#295047"/>
<path fill-rule="evenodd" clip-rule="evenodd" d="M153.504 287.275L136.488 332.65C135.388 335.582 136.874 338.855 139.806 339.949C142.738 341.05 146.011 339.564 147.106 336.631L164.121 291.256C165.222 288.324 163.736 285.051 160.803 283.957C157.871 282.856 154.598 284.342 153.504 287.275ZM198.879 291.256L215.894 336.631C216.989 339.564 220.262 341.05 223.194 339.949C226.126 338.855 227.612 335.582 226.512 332.65L209.496 287.275C208.402 284.342 205.129 282.856 202.197 283.957C199.264 285.051 197.778 288.324 198.879 291.256Z" fill="#295047"/>
<path fill-rule="evenodd" clip-rule="evenodd" d="M130.453 340.312H232.547C235.678 340.312 238.219 337.772 238.219 334.641C238.219 331.51 235.678 328.969 232.547 328.969H130.453C127.322 328.969 124.781 331.51 124.781 334.641C124.781 337.772 127.322 340.312 130.453 340.312ZM306.281 255.234V62.3906C306.281 52.998 298.658 45.375 289.266 45.375H226.875C223.744 45.375 221.203 47.916 221.203 51.0469C221.203 54.1777 223.744 56.7188 226.875 56.7188H289.266C292.396 56.7188 294.938 59.2598 294.938 62.3906V255.234C294.938 258.365 297.479 260.906 300.609 260.906C303.74 260.906 306.281 258.365 306.281 255.234ZM136.125 45.375H73.7344C64.3417 45.375 56.7188 52.998 56.7188 62.3906V255.234C56.7188 258.365 59.2598 260.906 62.3906 260.906C65.5215 260.906 68.0625 258.365 68.0625 255.234V62.3906C68.0625 59.2598 70.6035 56.7188 73.7344 56.7188H136.125C139.256 56.7188 141.797 54.1777 141.797 51.0469C141.797 47.916 139.256 45.375 136.125 45.375Z" fill="#295047"/>
<path fill-rule="evenodd" clip-rule="evenodd" d="M28.3594 260.906H334.641C337.772 260.906 340.312 258.365 340.312 255.234C340.312 252.103 337.772 249.562 334.641 249.562H28.3594C25.2285 249.562 22.6875 252.103 22.6875 255.234C22.6875 258.365 25.2285 260.906 28.3594 260.906ZM192.844 74.148V28.3589C192.844 26.5155 193.74 24.7913 195.243 23.725C196.746 22.6643 198.674 22.3978 200.41 23.0103C222.428 30.8035 238.219 51.8178 238.219 76.4961C238.219 99.7338 224.209 119.733 204.188 128.485V221.203C204.188 230.595 196.564 238.218 187.172 238.218H175.828C166.436 238.218 158.812 230.595 158.812 221.203V128.485C138.791 119.733 124.781 99.7338 124.781 76.4961C124.781 51.8178 140.572 30.8035 162.59 23.0103C164.326 22.3978 166.254 22.6643 167.757 23.725C169.26 24.7913 170.156 26.5155 170.156 28.3589V74.148L181.5 85.4917L192.844 74.148ZM204.188 37.2014V76.4961C204.188 77.9992 203.592 79.4455 202.526 80.5061L185.51 97.5218C183.298 99.7395 179.702 99.7395 177.49 97.5218L160.474 80.5061C159.408 79.4455 158.812 77.9992 158.812 76.4961V37.2014C145.257 45.0512 136.125 59.713 136.125 76.4961C136.125 96.2399 148.762 113.051 166.379 119.285C168.642 120.09 170.156 122.228 170.156 124.633V221.203C170.156 224.334 172.697 226.875 175.828 226.875H187.172C190.303 226.875 192.844 224.334 192.844 221.203V124.633C192.844 122.228 194.358 120.09 196.621 119.285C214.238 113.051 226.875 96.2399 226.875 76.4961C226.875 59.713 217.743 45.0512 204.188 37.2014ZM85.0781 136.125H96.4219C99.5527 136.125 102.094 133.584 102.094 130.453C102.094 127.322 99.5527 124.781 96.4219 124.781H85.0781C81.9473 124.781 79.4062 127.322 79.4062 130.453C79.4062 133.584 81.9473 136.125 85.0781 136.125ZM277.922 124.781H266.578C263.447 124.781 260.906 127.322 260.906 130.453C260.906 133.584 263.447 136.125 266.578 136.125H277.922C281.053 136.125 283.594 133.584 283.594 130.453C283.594 127.322 281.053 124.781 277.922 124.781ZM85.0781 181.5H96.4219C99.5527 181.5 102.094 178.959 102.094 175.828C102.094 172.697 99.5527 170.156 96.4219 170.156H85.0781C81.9473 170.156 79.4062 172.697 79.4062 175.828C79.4062 178.959 81.9473 181.5 85.0781 181.5Z" fill="#32A517"/>
<path fill-rule="evenodd" clip-rule="evenodd" d="M221.203 181.5H232.547C235.678 181.5 238.219 178.959 238.219 175.828C238.219 172.697 235.678 170.156 232.547 170.156H221.203C218.072 170.156 215.531 172.697 215.531 175.828C215.531 178.959 218.072 181.5 221.203 181.5ZM119.109 136.125H130.453C133.584 136.125 136.125 133.584 136.125 130.453C136.125 127.322 133.584 124.781 130.453 124.781H119.109C115.979 124.781 113.438 127.322 113.438 130.453C113.438 133.584 115.979 136.125 119.109 136.125ZM243.891 124.781H232.547C229.416 124.781 226.875 127.322 226.875 130.453C226.875 133.584 229.416 136.125 232.547 136.125H243.891C247.021 136.125 249.562 133.584 249.562 130.453C249.562 127.322 247.021 124.781 243.891 124.781ZM119.109 181.5H141.797C144.928 181.5 147.469 178.959 147.469 175.828C147.469 172.697 144.928 170.156 141.797 170.156H119.109C115.979 170.156 113.438 172.697 113.438 175.828C113.438 178.959 115.979 181.5 119.109 181.5ZM255.234 181.5H277.922C281.053 181.5 283.594 178.959 283.594 175.828C283.594 172.697 281.053 170.156 277.922 170.156H255.234C252.104 170.156 249.562 172.697 249.562 175.828C249.562 178.959 252.104 181.5 255.234 181.5ZM85.0781 158.812H141.797C144.928 158.812 147.469 156.271 147.469 153.141C147.469 150.01 144.928 147.469 141.797 147.469H85.0781C81.9473 147.469 79.4062 150.01 79.4062 153.141C79.4062 156.271 81.9473 158.812 85.0781 158.812ZM221.203 158.812H277.922C281.053 158.812 283.594 156.271 283.594 153.141C283.594 150.01 281.053 147.469 277.922 147.469H221.203C218.072 147.469 215.531 150.01 215.531 153.141C215.531 156.271 218.072 158.812 221.203 158.812ZM85.0781 204.188H141.797C144.928 204.188 147.469 201.646 147.469 198.516C147.469 195.385 144.928 192.844 141.797 192.844H85.0781C81.9473 192.844 79.4062 195.385 79.4062 198.516C79.4062 201.646 81.9473 204.188 85.0781 204.188ZM85.0781 226.875H141.797C144.928 226.875 147.469 224.334 147.469 221.203C147.469 218.072 144.928 215.531 141.797 215.531H85.0781C81.9473 215.531 79.4062 218.072 79.4062 221.203C79.4062 224.334 81.9473 226.875 85.0781 226.875ZM221.203 204.188H277.922C281.053 204.188 283.594 201.646 283.594 198.516C283.594 195.385 281.053 192.844 277.922 192.844H221.203C218.072 192.844 215.531 195.385 215.531 198.516C215.531 201.646 218.072 204.188 221.203 204.188ZM221.203 226.875H277.922C281.053 226.875 283.594 224.334 283.594 221.203C283.594 218.072 281.053 215.531 277.922 215.531H221.203C218.072 215.531 215.531 218.072 215.531 221.203C215.531 224.334 218.072 226.875 221.203 226.875Z" fill="#295047"/>
</svg>
