<svg width="96" height="111" viewBox="0 0 96 111" fill="none" xmlns="http://www.w3.org/2000/svg">
<path fill-rule="evenodd" clip-rule="evenodd" d="M46.6968 12.4123L38.7678 25.8794L45.3251 30.8806V23.4141H48.0318V41.6644H68.8458L58.0504 23.8804L60.3898 22.5865L73.5399 44.2495H46.6782L45.3251 44.2491V34.1852L34.2019 25.7017L24.5118 41.6644H39.5087V44.2495H19.8174L20.9952 42.3097L32.6498 23.1105L33.4368 21.8135L34.6617 22.7478L36.6265 24.2462L45.4992 9.17608L46.6599 7.20414L47.848 9.16111L61.3057 31.3301L58.9663 32.624L46.6968 12.4123ZM46.6784 5.14786L38.3828 18.8135L36.0434 17.5196L45.5088 1.92683L46.678 0L47.8479 1.92674L57.3142 17.5196L54.9748 18.8135L46.6784 5.14786Z" fill="white"/>
<path fill-rule="evenodd" clip-rule="evenodd" d="M0 85.5867C0 85.2111 0.0129345 84.882 0.0399333 84.5999C0.0666699 84.3178 0.121049 84.0695 0.201634 83.8548C0.928729 83.8013 1.49465 83.6732 1.89887 83.4722C2.30288 83.2702 2.58529 82.9216 2.74701 82.4246C2.90874 81.9283 2.98933 81.236 2.98933 80.3499V63.351C2.98933 62.4386 2.90874 61.74 2.74701 61.2561C2.58529 60.7728 2.30288 60.4241 1.89887 60.2086C1.49465 59.9944 0.928729 59.8735 0.201634 59.8462C0.121049 59.632 0.0666699 59.3767 0.0399333 59.0809C0.0130094 58.7857 0 58.4637 0 58.1143C1.04998 58.1685 2.06652 58.2013 3.05021 58.215C4.03279 58.2287 4.84825 58.2351 5.49422 58.2351C5.87149 58.2351 6.40326 58.2287 7.09043 58.215C7.77741 58.2013 8.45735 58.1881 9.13077 58.1744C9.80402 58.1613 10.3025 58.1542 10.6262 58.1542C12.8617 58.1542 14.653 58.5172 15.9999 59.2421C17.3465 59.967 18.3165 60.9204 18.9086 62.1025C19.5009 63.2836 19.7982 64.5735 19.7982 65.9696C19.7982 67.4997 19.4543 68.9767 18.7679 70.4004C18.0807 71.8241 17.0636 72.9923 15.7169 73.9045C14.3695 74.8181 12.6723 75.274 10.6262 75.274C9.49489 75.274 8.55167 75.127 7.79784 74.8312C7.74345 74.536 7.71652 74.2538 7.71652 73.9856C7.71652 73.7172 7.75793 73.4481 7.83831 73.1796C8.18757 73.26 8.53866 73.3207 8.88903 73.3605C9.23809 73.4011 9.60237 73.4214 9.97966 73.4214C10.976 73.4214 11.9053 73.247 12.7673 72.8975C13.6294 72.5488 14.3296 71.9246 14.8686 71.0248C15.407 70.1248 15.6768 68.8292 15.6768 67.1373C15.6768 64.9887 15.1443 63.2503 14.0806 61.9209C13.0169 60.5912 11.2727 59.9272 8.84838 59.9272C8.55167 59.9272 8.20781 59.9467 7.81753 59.9872C7.42705 60.0277 6.88136 60.1283 6.18194 60.2895L6.78779 59.6855V79.5441C6.78779 80.6994 6.90828 81.579 7.15132 82.183C7.39364 82.7871 7.7841 83.2037 8.3231 83.4316C8.86154 83.6602 9.54853 83.8013 10.3844 83.8548C10.4643 84.0695 10.5181 84.3178 10.5448 84.5999C10.5718 84.882 10.5861 85.2111 10.5861 85.5867C10.1821 85.5598 9.7032 85.5396 9.15102 85.5265C8.59883 85.5128 8.01322 85.4991 7.39363 85.486C6.77405 85.4723 6.14127 85.4658 5.49422 85.4658C4.87444 85.4658 4.20177 85.4723 3.47411 85.486C2.74701 85.4991 2.07359 85.5128 1.454 85.5265C0.833662 85.5396 0.349074 85.5598 0 85.5867Z" fill="white"/>
<path fill-rule="evenodd" clip-rule="evenodd" d="M34.6414 78.1451C33.5637 76.158 32.9499 75.0526 31.9391 73.3207C30.9291 71.5883 29.9858 69.9772 29.1108 68.4871C28.2357 66.9962 27.4202 65.634 26.667 64.3978C25.9124 63.1093 25.313 62.1495 24.8684 61.5179C24.4242 60.887 24.0332 60.4639 23.6966 60.2491C23.3598 60.0342 22.9361 59.9004 22.4246 59.8462C22.3432 59.5242 22.2883 59.2081 22.2621 58.8993C22.2352 58.5911 22.2222 58.3292 22.2222 58.1143C22.4907 58.1411 22.8143 58.1613 23.1916 58.1744C23.5688 58.1881 23.9795 58.2013 24.4242 58.215C24.8684 58.2287 25.319 58.2351 25.7774 58.2351H27.1111C27.7576 58.2351 28.5311 58.2222 29.4344 58.1946C30.3364 58.1685 31.1649 58.1411 31.9194 58.1143C31.9194 58.3553 31.8992 58.6315 31.8585 58.9398C31.8186 59.2486 31.7709 59.5511 31.717 59.8462C30.8544 59.9004 30.2356 60.0213 29.8583 60.2086C29.481 60.3967 29.3466 60.7395 29.4541 61.2365C29.5614 61.7334 29.8988 62.4916 30.4641 63.5123C31.1918 64.8006 31.8108 65.8887 32.3236 66.7748C32.8346 67.661 33.3192 68.4936 33.7778 69.272C34.2357 70.0517 34.713 70.8837 35.2116 71.7698C35.7106 72.656 35.843 73.0653 36.5164 74.3268L34.6414 78.1451ZM29.3328 85.8282C28.4709 85.8282 27.804 85.7211 27.3332 85.5063C26.8615 85.2914 26.4908 85.0897 26.2215 84.9021C26.1142 84.4993 26.0611 83.9958 26.0611 83.3918C26.0611 82.7871 26.101 82.3104 26.1816 81.9609C26.6395 82.042 27.0771 82.102 27.4949 82.1425C27.9121 82.183 28.3365 82.2032 28.7677 82.2032C29.9801 82.2032 30.9357 82.0151 31.6365 81.639C32.3361 81.2629 32.9761 80.6588 33.5557 79.8262C34.1341 78.9943 34.7606 77.8105 35.5426 76.441C36.404 74.3737 37.3332 72.3876 38.222 70.3195C39.1108 68.252 39.9859 66.1975 40.8486 64.1568C41.4681 62.7331 41.7099 61.706 41.5756 61.0746C41.4407 60.4444 40.6868 60.0342 39.3132 59.8462C39.2327 59.5511 39.1717 59.2421 39.1311 58.9202C39.0912 58.5976 39.0709 58.3292 39.0709 58.1143C39.4749 58.1411 39.8582 58.1613 40.2225 58.1744C40.5858 58.1881 40.9494 58.2013 41.3137 58.215C41.6764 58.2287 42.0742 58.2351 42.5051 58.2351C43.1241 58.2351 43.8184 58.2222 44.5861 58.1946C45.3537 58.1685 46.0336 58.1411 46.6265 58.1143C46.6532 58.4103 46.6532 58.6981 46.6265 58.9802C46.5995 59.2618 46.5459 59.5511 46.4653 59.8462C45.9256 59.9807 45.4612 60.2628 45.0707 60.6925C44.6797 61.1216 44.3089 61.6654 43.9598 62.3237C43.6095 62.9819 43.2452 63.7272 42.8687 64.5598L36.1208 79.5847C35.3662 81.3034 34.6324 82.6127 33.9193 83.512C33.2052 84.4125 32.4783 85.023 31.7375 85.3449C30.9959 85.6676 30.1949 85.8282 29.3328 85.8282Z" fill="white"/>
<path fill-rule="evenodd" clip-rule="evenodd" d="M60.9695 85.8282C58.4648 85.8282 56.2488 85.2308 54.3237 84.0357C52.3974 82.8412 50.8823 81.1762 49.7781 79.0407C48.673 76.9058 48.1216 74.442 48.1216 71.6483C48.1216 69.34 48.4976 67.3253 49.2521 65.6065C50.006 63.8878 51.0233 62.4511 52.3031 61.2966C53.5824 60.1421 55.0234 59.282 56.6261 58.7184C58.2282 58.1542 59.892 57.8721 61.616 57.8721C63.3138 57.8721 64.8615 58.0472 66.2626 58.3959C67.6631 58.7452 69.1041 59.2689 70.5863 59.967C70.3977 60.9073 70.2765 61.9071 70.2228 62.9678C70.1678 64.0288 70.1417 65.1102 70.1417 66.2107C69.7911 66.3451 69.4545 66.4392 69.1316 66.4928C68.8087 66.5469 68.4307 66.5737 68.0003 66.5737C67.9454 64.6669 67.6631 63.2034 67.1514 62.1822C66.6399 61.162 65.9397 60.464 65.0502 60.0878C64.1621 59.7117 63.1246 59.5244 61.9396 59.5244C60.2424 59.5244 58.7877 59.8331 57.576 60.4503C56.3635 61.068 55.3745 61.8941 54.6062 62.9278C53.8384 63.9622 53.2732 65.1371 52.9089 66.4523C52.5461 67.7681 52.3634 69.1382 52.3634 70.5612C52.3634 72.9519 52.7741 75.1199 53.5961 77.0665C54.4175 79.0146 55.5958 80.5512 57.1311 81.6796C58.6672 82.8073 60.5116 83.3708 62.6667 83.3708C63.9595 83.3708 65.2795 83.1566 66.6261 82.7265C67.9728 82.2974 69.2127 81.7194 70.344 80.9946C70.5052 81.1291 70.6597 81.3237 70.8084 81.5784C70.9564 81.8344 71.0442 82.0558 71.0704 82.2431C69.4814 83.4787 67.9127 84.385 66.3634 84.9624C64.8144 85.539 63.0163 85.8282 60.9695 85.8282Z" fill="white"/>
<path fill-rule="evenodd" clip-rule="evenodd" d="M75.3535 85.5867C75.3535 85.2111 75.3665 84.882 75.3942 84.5999C75.4204 84.3178 75.4748 84.0695 75.5559 83.8548C76.2822 83.8013 76.8482 83.6667 77.2524 83.4518C77.6566 83.2371 77.9461 82.8543 78.1215 82.3037C78.2959 81.7532 78.3835 80.9539 78.3835 79.9066V63.351C78.3835 62.4386 78.3029 61.74 78.1412 61.2561C77.98 60.7728 77.6971 60.4241 77.2923 60.2086C76.8888 59.9944 76.3229 59.8735 75.5958 59.8462C75.5153 59.632 75.4608 59.3767 75.4341 59.0809C75.4072 58.7857 75.3942 58.4637 75.3942 58.1143C75.9319 58.1411 76.7466 58.1685 77.838 58.1946C78.9292 58.2222 79.9457 58.2351 80.8884 58.2351C81.5355 58.2351 82.1682 58.2287 82.7878 58.215C83.4068 58.2013 83.993 58.1881 84.5459 58.1744C85.0974 58.1613 85.5755 58.1411 85.9797 58.1143C85.9797 58.4637 85.966 58.7857 85.939 59.0809C85.9123 59.3767 85.8584 59.632 85.7779 59.8462C84.9429 59.8735 84.2557 60.0009 83.7173 60.2288C83.1783 60.4574 82.7878 60.8733 82.5448 61.4773C82.3025 62.0815 82.182 62.9749 82.182 64.1568V79.9066C82.182 80.9278 82.2755 81.7193 82.4649 82.2836C82.6528 82.8478 82.9896 83.2298 83.475 83.4316C83.9596 83.6326 84.6323 83.7333 85.4949 83.7333C87.7573 83.7333 89.34 83.2298 90.2425 82.2229C91.1445 81.2158 91.5957 79.8934 91.5957 78.2557C91.5957 76.9659 91.3736 75.9126 90.929 75.0931C90.4848 74.2742 89.9124 73.6426 89.2122 73.2C88.5113 72.7565 87.7508 72.4483 86.9294 72.2734C86.1074 72.099 85.3194 72.0114 84.5656 72.0114C84.1614 72.0114 83.7035 72.0251 83.192 72.0512C82.6805 72.0786 82.6673 71.9977 82.182 72.0512V70.3953C82.8016 70.315 82.9293 70.2999 83.5351 70.2594C84.1417 70.2188 84.781 70.1992 85.4544 70.1992C87.6362 70.1992 89.5154 70.4272 91.0907 70.8837C92.6674 71.3402 93.8791 72.0918 94.7274 73.1393C95.5756 74.1867 96 75.6233 96 77.4498C96 78.9543 95.6764 80.3096 95.0306 81.5181C94.3841 82.7264 93.3531 83.6876 91.9396 84.3986C90.5255 85.1106 88.6868 85.4658 86.4244 85.4658C84.8891 85.4658 83.4003 85.4723 81.9599 85.486C80.5182 85.4991 79.2253 85.5128 78.081 85.5265C76.9353 85.5396 76.0262 85.5598 75.3535 85.5867Z" fill="white"/>
<path fill-rule="evenodd" clip-rule="evenodd" d="M38.7944 66.6748L42.0661 68.0151L38.7944 66.6748Z" fill="white"/>
<path fill-rule="evenodd" clip-rule="evenodd" d="M95.6943 94.1113H0.171875V94.5078H95.6943V94.1113Z" fill="white"/>
<path fill-rule="evenodd" clip-rule="evenodd" d="M16.2695 101.055V108.32H15.3264V101.925H10.9431V108.32H10V101.055H16.2695ZM21.8314 101C22.7434 101 23.443 101.237 23.93 101.711C24.4171 102.186 24.6606 102.888 24.6606 103.818V108.32H23.7574V107.188C23.5448 107.565 23.2327 107.86 22.8209 108.072C22.4091 108.284 21.9199 108.389 21.3531 108.389C20.5739 108.389 19.954 108.196 19.4936 107.809C19.0331 107.423 18.8029 106.912 18.8029 106.276C18.8029 105.659 19.0176 105.162 19.447 104.785C19.8765 104.407 20.5606 104.218 21.4992 104.218H23.7175V103.776C23.7175 103.15 23.5492 102.674 23.2127 102.347C22.8763 102.02 22.3848 101.856 21.7383 101.856C21.2956 101.856 20.8706 101.932 20.4632 102.084C20.0559 102.236 19.7061 102.446 19.4139 102.713L18.9888 101.981C19.343 101.668 19.7681 101.426 20.2639 101.256C20.7599 101.085 21.2823 101 21.8314 101ZM21.4992 107.616C22.0306 107.616 22.4867 107.489 22.8674 107.236C23.2482 106.983 23.5316 106.617 23.7175 106.138V104.95H21.5258C20.3304 104.95 19.7327 105.383 19.7327 106.249C19.7327 106.672 19.8876 107.006 20.1976 107.25C20.5075 107.494 20.9414 107.616 21.4992 107.616ZM31.2452 101C31.9005 101 32.4938 101.154 33.0251 101.463C33.5564 101.771 33.9726 102.206 34.2737 102.768C34.5747 103.33 34.7254 103.97 34.7254 104.688C34.7254 105.415 34.5747 106.06 34.2737 106.622C33.9726 107.183 33.5586 107.618 33.0317 107.927C32.5048 108.235 31.9093 108.389 31.2452 108.389C30.6785 108.389 30.167 108.268 29.711 108.024C29.255 107.779 28.8809 107.423 28.5886 106.953V111H27.6455V101.055H28.5488V102.492C28.8322 102.013 29.2063 101.645 29.6712 101.387C30.1361 101.129 30.6608 101 31.2452 101ZM31.1788 107.519C31.6658 107.519 32.1086 107.402 32.5071 107.167C32.9055 106.932 33.2177 106.599 33.4435 106.166C33.6694 105.733 33.7822 105.24 33.7822 104.688C33.7822 104.135 33.6694 103.645 33.4435 103.217C33.2177 102.789 32.9055 102.455 32.5071 102.216C32.1086 101.976 31.6658 101.856 31.1788 101.856C30.6829 101.856 30.2379 101.976 29.8439 102.216C29.4498 102.455 29.1399 102.789 28.9141 103.217C28.6883 103.645 28.5754 104.135 28.5754 104.688C28.5754 105.24 28.6883 105.733 28.9141 106.166C29.1399 106.599 29.4498 106.932 29.8439 107.167C30.2379 107.402 30.6829 107.519 31.1788 107.519ZM39.7691 105.088H38.1752V108.32H37.2321V101.055H38.1752V104.246H39.7824L42.2397 101.055H43.2625L40.5129 104.577L43.4617 108.32H42.346L39.7691 105.088ZM44.5872 104.149H48.0673V105.006H44.5872V104.149ZM53.6956 108.389C53.0225 108.389 52.416 108.231 51.8758 107.913C51.3356 107.595 50.9106 107.156 50.6007 106.594C50.2907 106.032 50.1358 105.397 50.1358 104.688C50.1358 103.979 50.2907 103.344 50.6007 102.782C50.9106 102.22 51.3356 101.783 51.8758 101.47C52.416 101.157 53.0225 101 53.6956 101C54.3686 101 54.9752 101.157 55.5153 101.47C56.0555 101.783 56.4784 102.22 56.7838 102.782C57.0894 103.344 57.2421 103.979 57.2421 104.688C57.2421 105.397 57.0894 106.032 56.7838 106.594C56.4784 107.156 56.0555 107.595 55.5153 107.913C54.9752 108.231 54.3686 108.389 53.6956 108.389ZM53.6956 107.519C54.1915 107.519 54.6364 107.402 55.0305 107.167C55.4246 106.932 55.7323 106.599 55.9536 106.166C56.175 105.733 56.2858 105.24 56.2858 104.688C56.2858 104.135 56.175 103.643 55.9536 103.21C55.7323 102.777 55.4246 102.443 55.0305 102.209C54.6364 101.974 54.1915 101.856 53.6956 101.856C53.1996 101.856 52.7547 101.974 52.3607 102.209C51.9666 102.443 51.6567 102.777 51.4309 103.21C51.205 103.643 51.0921 104.135 51.0921 104.688C51.0921 105.24 51.205 105.733 51.4309 106.166C51.6567 106.599 51.9666 106.932 52.3607 107.167C52.7547 107.402 53.1996 107.519 53.6956 107.519ZM64.3845 101.925H61.7413V108.32H60.7982V101.925H58.1549V101.055H64.3845V101.925ZM72.0185 104.992H66.1741C66.2273 105.747 66.5062 106.357 67.0109 106.822C67.5157 107.287 68.1533 107.519 68.9237 107.519C69.3576 107.519 69.756 107.439 70.1191 107.278C70.4822 107.116 70.7965 106.879 71.0622 106.566L71.5935 107.202C71.2836 107.588 70.8962 107.883 70.4313 108.086C69.9664 108.288 69.455 108.389 68.8971 108.389C68.1799 108.389 67.5445 108.231 66.991 107.913C66.4376 107.595 66.0059 107.156 65.6959 106.594C65.386 106.032 65.2311 105.397 65.2311 104.688C65.2311 103.979 65.3794 103.344 65.676 102.782C65.9726 102.22 66.38 101.783 66.8981 101.47C67.416 101.157 67.9983 101 68.6447 101C69.2911 101 69.8712 101.157 70.3848 101.47C70.8984 101.783 71.3013 102.218 71.5935 102.775C71.8857 103.332 72.0318 103.97 72.0318 104.688L72.0185 104.992ZM68.6447 101.843C67.9717 101.843 67.4072 102.066 66.9512 102.512C66.4951 102.959 66.2361 103.541 66.1741 104.26H71.1286C71.0666 103.541 70.8076 102.959 70.3515 102.512C69.8955 102.066 69.3266 101.843 68.6447 101.843ZM80.1573 101.055V108.32H79.2142V101.925H75.8669L75.7739 103.721C75.7031 105.231 75.5348 106.391 75.2691 107.202C75.0035 108.012 74.5298 108.417 73.8479 108.417C73.6619 108.417 73.4361 108.38 73.1705 108.307L73.2369 107.464C73.3963 107.501 73.507 107.519 73.569 107.519C73.9321 107.519 74.2066 107.344 74.3925 106.994C74.5785 106.645 74.7024 106.212 74.7645 105.696C74.8265 105.18 74.8795 104.499 74.9238 103.652L75.0434 101.055H80.1573ZM86.3169 103.624C87.1936 103.634 87.8599 103.836 88.3159 104.232C88.772 104.628 89 105.199 89 105.945C89 106.718 88.7542 107.312 88.2628 107.727C87.7713 108.141 87.0607 108.343 86.1309 108.334L83.3149 108.32V101.055H84.258V103.597L86.3169 103.624ZM86.0778 107.588C86.7242 107.598 87.2135 107.462 87.5455 107.181C87.8775 106.9 88.0437 106.488 88.0437 105.945C88.0437 105.411 87.8798 105.015 87.5522 104.757C87.2245 104.499 86.7331 104.366 86.0778 104.356L84.258 104.329V107.561L86.0778 107.588Z" fill="white"/>
</svg>
